# xmcd
#
# Track frame offsets: 
#        150
#        16002
#        34367
#        55952
#        72687
#        90677
#        107635
#        122560
#        141195
#        161370
#        180855
#        195680
#        213550
#        226757
#        249782
#
# Disc length: 3506 seconds
#
# Revision: 2
# Processed by: cddbd v1.5.1PL0 Copyright (c) Steve Scherf et al.
# Submitted via: ExactAudioCopy v0.95b2
#
DISCID=c40db00f
DTITLE=Elba Ramalho - Baioque
DYEAR=1997
DGENRE=MPB
TTITLE0=Baioque
TTITLE1=Pavao Mysteriozo
TTITLE2=S. O. S.
TTITLE3=Paralelas
TTITLE4=Vila do Sossego
TTITLE5=Vamos fugir
TTITLE6=Zanzibar
TTITLE7=Os Argonautas
TTITLE8=Relampiano
TTITLE9=Xotes - Quando chega o verao, Ate mais ve and Pequenininha
TTITLE10=A musica do nosso amor
TTITLE11=Ciranda aa rosa vermelha
TTITLE12=Tambor do Mundo
TTITLE13=Frevos - Eu Tambem quero beijar, Chao da praca and Gemedeira
TTITLE14=Paris
EXTD=BMG 7432155307-2
EXTT0=Chico Buarque de Hollanda
EXTT1=Ednardo
EXTT2=Raul Seixas
EXTT3=Belchior
EXTT4=Z  Ramalho
EXTT5=Gilberto Gil e Liminha
EXTT6=Armandinho e Fausto Nilo
EXTT7=Caetano Veloso
EXTT8=Lenine e Paulinho Moska
EXTT9=Quando Chega O Ver o: Dominguinhos\ne Adbel Silva\nAt  Mais V - 
EXTT9=Pedrinho e Primo\nPequenininha: Assis o
EXTT10=Saul Barbosa e Jorge Portugal
EXTT11=Alceu Valen a - adapta  o de folclore
EXTT12=Geraldo Azevedo e Fausto Nilo
EXTT13=Eu Tamb m Quero Beijar: Pepeu Gomes\nMoraes Moreira e Fausto Ni
EXTT13=lo\nCh o Da Pra a: Moraes Moreira e \nFausto Nilo\nGemedeira: R
EXTT13=obertinho do Recife e \nCapinam
EXTT14=Alcyr Pires Vermelho e\nAlberto Ribeiro
PLAYORDER=
